<svg width="300" height="300" viewBox="0 0 300 300" fill="none" xmlns="http://www.w3.org/2000/svg">
<path fill-rule="evenodd" clip-rule="evenodd" d="M240 0C273.137 0 300 26.8629 300 60V240C300 273.137 273.137 300 240 300H60C26.8629 300 4.83258e-07 273.137 0 240V60C0 26.8629 26.8629 4.83195e-07 60 0H240ZM72 20C43.2812 20 20 43.2812 20 72V165C20 193.719 43.2812 217 72 217H228C256.719 217 280 193.719 280 165V72C280 43.2812 256.719 20 228 20H72ZM171.476 253.238C171.476 263.863 162.863 272.476 152.238 272.476C141.613 272.476 133 263.863 133 253.238C133 242.613 141.613 234 152.238 234C162.863 234 171.476 242.613 171.476 253.238ZM221.238 253.238C221.238 263.863 212.625 272.476 202 272.476C191.375 272.476 182.762 263.863 182.762 253.238C182.762 242.613 191.375 234 202 234C212.625 234 221.238 242.613 221.238 253.238ZM271 253.238C271 263.863 262.387 272.476 251.762 272.476C241.137 272.476 232.524 263.863 232.524 253.238C232.524 242.613 241.137 234 251.762 234C262.387 234 271 242.613 271 253.238Z" fill="black"/>
<path d="M101.293 46.0181C109.015 45.6276 115.592 51.5714 115.983 59.2935C116.041 60.4589 116.094 61.6753 116.646 67.3042C117.193 72.8901 118.279 83.2365 118.811 89.8179C119.369 96.726 119.353 99.9287 119.103 103.514C118.564 111.227 111.875 117.044 104.162 116.505C96.449 115.967 90.6329 109.278 91.171 101.565C91.2974 99.7537 91.3827 98.0136 90.9025 92.0738C90.3958 85.8069 89.365 76.009 88.7794 70.0347C88.1981 64.1038 88.1049 62.4308 88.0177 60.7076C87.6272 52.9855 93.571 46.4086 101.293 46.0181Z" fill="black"/>
<path d="M209.073 124.478C212.595 117.781 220.837 115.077 227.661 118.448C234.541 121.846 237.393 130.142 234.088 137.043L234.02 137.2C233.957 137.342 233.881 137.512 233.787 137.711C233.439 138.452 233.011 139.254 232.416 140.326C231.135 142.634 228.016 147.818 225.197 151.27C224.025 152.705 220.988 156.291 217.637 159.972C214.622 163.283 210.197 167.975 206.599 170.591C200.132 175.291 195.187 176.637 188.472 179.109C184.782 180.467 181.857 181.602 179.616 182.474C177.715 183.214 175.521 184.085 174.111 184.521C171.987 185.179 168.083 185.826 164.077 186.317C159.618 186.863 153.792 187.362 147.31 187.46C134.926 187.646 125.488 187.116 116.81 186.336C108.187 185.562 103.42 184.82 98.1396 183.293C92.5714 181.682 83.2193 177.339 76.6455 172.733C71.0934 168.842 69.8563 167.783 68.7246 166.782C62.9331 161.659 62.3911 152.812 67.5137 147.02C72.6364 141.229 81.4839 140.686 87.2754 145.809C87.5064 146.013 87.4707 145.983 87.5234 146.027C87.5668 146.063 87.7142 146.185 88.0469 146.44C88.7467 146.976 90.0922 147.965 92.7139 149.802C94.5918 151.118 97.2168 152.604 99.9502 153.924C102.755 155.279 104.962 156.119 105.918 156.395C108.678 157.193 111.396 157.737 119.315 158.449C127.179 159.155 135.629 159.632 146.889 159.462C152.228 159.382 157.048 158.969 160.674 158.525C162.484 158.303 163.949 158.08 164.986 157.899C165.52 157.806 165.851 157.738 166.018 157.704C166.161 157.652 166.388 157.569 166.722 157.442C167.416 157.178 168.289 156.836 169.455 156.382C171.744 155.491 174.862 154.282 178.8 152.833C187.34 149.689 187.613 149.777 190.136 147.943C190.133 147.945 190.15 147.932 190.189 147.902C190.228 147.871 190.283 147.827 190.354 147.769C190.497 147.65 190.685 147.49 190.917 147.282C191.386 146.861 191.955 146.322 192.614 145.668C193.938 144.354 195.433 142.77 196.933 141.123C199.944 137.815 202.653 134.608 203.511 133.558C204.017 132.939 204.845 131.765 205.807 130.264C206.725 128.831 207.519 127.485 207.935 126.736C208.238 126.189 208.386 125.91 208.444 125.799C208.557 125.54 208.703 125.216 208.908 124.8L209.073 124.478Z" fill="black"/>
<path d="M178.557 43.148C183.361 37.2592 192.015 36.2692 198.028 40.9732C204.118 45.737 205.193 54.5365 200.43 60.6265C199.845 61.3739 199.135 62.1671 194.275 67.5181C192.165 69.841 189.291 73.0048 186.285 76.3296C193.381 76.8051 201.669 77.3377 210.225 77.897C217.941 78.4015 223.786 85.0654 223.282 92.7808C222.778 100.496 216.114 106.342 208.398 105.837C192.932 104.826 177.788 103.873 169.306 103.183C165.086 102.84 162.179 102.54 160.094 102.222C157.988 101.901 155.804 101.439 153.553 100.379C153.273 100.248 151.963 99.6457 150.569 98.5523C148.975 97.3014 146.945 95.1639 145.808 91.9029C143.682 85.8004 146.349 80.8121 146.822 79.9019C148.196 77.2571 150.635 74.3617 152.894 71.732C158.175 65.5858 168.48 54.2727 173.548 48.6929C176.125 45.8553 177.425 44.4178 178.095 43.6695C178.36 43.373 178.495 43.219 178.557 43.148Z" fill="black"/>
</svg>
